<?xml version="1.0" encoding="utf-8"?>
<!-- Generator: Adobe Illustrator 19.0.0, SVG Export Plug-In . SVG Version: 6.00 Build 0)  -->
<svg version="1.1" xmlns="http://www.w3.org/2000/svg" xmlns:xlink="http://www.w3.org/1999/xlink" x="0px" y="0px"
	 viewBox="0 0 1000 1000" style="enable-background:new 0 0 1000 1000;" xml:space="preserve">
<g id="Layer_2">
	<path id="XMLID_10_" class="st1" d="M956,465c15-163.3-97.7-383.1-319-379c-234.7,3.7-365.9,178-420.8,277
		c-61-56,62.3-229.5,62.3-229.5c-44.8,36.2-229.7,202.4-81.5,423c-20.3-76.8,32.3-175.1,112-246.4c74.4-66.5,176.8-115.9,291-100.6
		c106.7,15.8,195.1,81.6,206.5,165.5c5.8,86-50.5,207-141.8,252c41.7-39.3,113.9-147.6,96.3-254.3c-10.7-48.6-44.8-93.2-131.2-117.5
		c-91.8-22.2-178.1,6.5-249.2,50.2C265,378.7,205.4,479.7,232.5,576.3C222.3,589.2,80.3,769.5,24.8,838.8
		c16.7-10.7,116.6-74.7,116.6-74.7s-25.1-1.3-26.9-5.3s17-30.8,84.8-44.3c-16.8,2.3-32.5-1.3-34-4.5s29.5-26,80.7-43.8
		c-16.7,0.8-31.4-5.7-32.2-9.5s34.3-35,104.5-50.4c-21.5,0.1-35.2-3.4-35.2-3.4s51.8-0.8,77.3-16c21.8-12,39-43.3,92.8-73
		s172.6-11.7,177.1-11.1c-9.8-3.7-91.7-31.1-128.3-54.7c61.4-56.9,126.4-59.4,154.9-44.4C705,430.3,700,557,612,620.7
		c-42.4,28.9-148,50.9-165.4,31.3c-14.3-24.3,27.3-79,27.3-79s-189.3,50-191.8,316c3.2-13.7,27.4-154.7,145.8-194
		c27.5-11.5,65-18.5,123-18.5c34.5-1.5,64.5-3,110.5-12.5C652,751.5,543,814,543,814s121-1.5,203.6-199
		c10.5,196-131.1,305.2-338.1,291c19.6,3.8,59,12,73.5,12c139,19.5,288.5-88,361-271c29.5-90.5,36.3-194.3,18.5-260.5
		c-60.5-170-260.5-240-456.5-186C634,12.5,915,124.7,956,465z M279,531.3c0,0,21.8-37,30.8-66.5C327.5,519.3,279,531.3,279,531.3z"
		/>
</g>
</svg>
